<svg xmlns="http://www.w3.org/2000/svg" xmlns:xlink="http://www.w3.org/1999/xlink">
  <symbol id="sym01" viewBox="0 0 150 110">
    <circle cx="50" cy="50" r="40" stroke-width="8" stroke="red" fill="red"/>
  </symbol>

  <symbol id="delete" data-name="delete" xmlns="http://www.w3.org/2000/svg" viewBox="0 0 24 24"><path d="M19.52686,6.08209a1.84349,1.84349,0,0,0-1.668-2.01071H14.01828a2.08155,2.08155,0,0,0-4.03613,0h-3.841a1.85347,1.85347,0,0,0-1.668,2.0382,1.9745,1.9745,0,0,0,1.1548,1.90716V18.44957A3.054,3.054,0,0,0,8.6788,21.5h6.64283a3.054,3.054,0,0,0,3.05086-3.05043V8.01631A1.99367,1.99367,0,0,0,19.52686,6.08209ZM12.00021,3.40186a1.20187,1.20187,0,0,1,1.05631.66952H10.94391A1.20186,1.20186,0,0,1,12.00021,3.40186ZM6.14114,5.39067H17.85886c.12282,0,.34871.2624.34871.71891,0,.429-.22589.69142-.34871.69142H6.14114c-.12282,0-.34871-.26239-.34871-.71891C5.79243,5.65307,6.01832,5.39067,6.14114,5.39067ZM17.0532,18.44957a1.73331,1.73331,0,0,1-1.73157,1.73114H8.6788a1.73331,1.73331,0,0,1-1.73157-1.73114V8.12029h10.106Z"/><path d="M12.04187,18.048a.36729.36729,0,0,1-.36718-.36719V12.23707a.36719.36719,0,1,1,.73437,0v5.44378A.3673.3673,0,0,1,12.04187,18.048Z"/><path d="M9.308,18.048a.36729.36729,0,0,1-.36718-.36719V12.23707a.36719.36719,0,1,1,.73437,0v5.44378A.3673.3673,0,0,1,9.308,18.048Z"/><path d="M14.77536,18.048a.36729.36729,0,0,1-.36718-.36719V12.23707a.36719.36719,0,1,1,.73437,0v5.44378A.3673.3673,0,0,1,14.77536,18.048Z"/>
  </symbol>

  <symbol id="preview" data-name="preview" xmlns="http://www.w3.org/2000/svg" viewBox="0 0 24 24"><path d="M12.00018,17.62234C6.94036,17.62234,2.5,14.118,2.5,12c0-2.1691,4.34758-5.62234,9.50018-5.62234C15.66475,6.37766,21.5,8.95084,21.5,12,21.5,14.118,17.06,17.62234,12.00018,17.62234Zm0-9.98955c-4.75191,0-8.37813,3.10064-8.37813,4.36721,0,1.05575,3.47646,4.36721,8.37813,4.36721S20.37795,13.05575,20.37795,12C20.37795,10.73343,16.7521,7.63279,12.00018,7.63279Z"/><circle cx="12" cy="12" r="2.94875"/>
  </symbol>

  <symbol id="setting" data-name="setting" xmlns="http://www.w3.org/2000/svg" viewBox="0 0 24 24"><path d="M13.29818,21.5H10.70182a1.053,1.053,0,0,1-1.05177-1.05177v-1.4259a7.26663,7.26663,0,0,1-.95608-.393L7.64672,19.67655a1.05344,1.05344,0,0,1-1.4875,0L4.32345,17.84078a1.05294,1.05294,0,0,1,0-1.48709l1.07518-1.07518c-.115-.27393-.26777-.64313-.38318-.92856h-1.522a1.053,1.053,0,0,1-1.05177-1.05177V10.70182A1.053,1.053,0,0,1,3.49345,9.65005H4.97439a7.33046,7.33046,0,0,1,.39877-.954L4.36493,7.68779a1.05046,1.05046,0,0,1,.00041-1.4875L6.2007,4.36493a1.17711,1.17711,0,0,1,.74375-.30843,1.043,1.043,0,0,1,.74334.308L8.72108,5.39739c.28214-.12238.64231-.27146.929-.3844V3.55177A1.053,1.053,0,0,1,10.70182,2.5h2.59636A1.053,1.053,0,0,1,14.35,3.55177V4.97808a7.32108,7.32108,0,0,1,.95608.39262l1.04766-1.04725a1.0522,1.0522,0,0,1,1.48709,0l1.83577,1.83577a1.051,1.051,0,0,1-.00041,1.48791L18.62725,8.696a7.33684,7.33684,0,0,1,.39836.954h1.48094a1.053,1.053,0,0,1,1.05177,1.05177v2.59636A1.053,1.053,0,0,1,20.50655,14.35H19.02233a7.3567,7.3567,0,0,1-.393.95608l1.00618,1.00618a1.05332,1.05332,0,0,1,.00041,1.48709L17.7993,19.63548a1.05369,1.05369,0,0,1-1.48709,0L15.304,18.62725a7.43376,7.43376,0,0,1-.954.39836v1.42262A1.053,1.053,0,0,1,13.29818,21.5Zm-2.3865-1.26163h2.17664V18.5562a.63093.63093,0,0,1,.47106-.61028,6.089,6.089,0,0,0,1.53843-.6419.62955.62955,0,0,1,.76511.09815l1.193,1.19263L18.59521,17.056,17.40546,15.8662a.63077.63077,0,0,1-.09857-.7647,6.092,6.092,0,0,0,.6341-1.5413.63049.63049,0,0,1,.61028-.47188h1.74542V10.91168H18.5562a.63093.63093,0,0,1-.61028-.47106,6.073,6.073,0,0,0-.6419-1.5372.63073.63073,0,0,1,.09774-.76593L18.63628,6.903,17.097,5.36413,15.8662,6.59454a.63259.63259,0,0,1-.7647.09857,6.06058,6.06058,0,0,0-1.54089-.63328.63133.63133,0,0,1-.47229-.61069V3.76163H10.91168v1.69a.63089.63089,0,0,1-.47763.61193c-.18357.05667-1.35239.54128-1.52447.63286a.6695.6695,0,0,1-.77044-.09651L6.94445,5.4052,5.40561,6.94445l1.19263,1.193A.63014.63014,0,0,1,6.696,8.903a6.089,6.089,0,0,0-.6419,1.53761.63093.63093,0,0,1-.61028.47106H3.70331v2.17664H5.4438a.63089.63089,0,0,1,.61069.47311c.04723.1228.58318,1.41769.64314,1.54665a.61135.61135,0,0,1-.10309.75853L5.36413,17.097,6.903,18.63628,8.1338,17.40546a.6304.6304,0,0,1,.7647-.09857,6.07122,6.07122,0,0,0,1.54089.63369.63133.63133,0,0,1,.47229.61069Zm9.59487-9.32669h0Z"/><path d="M12,16.03828A4.03808,4.03808,0,1,1,16.03828,12,4.04273,4.04273,0,0,1,12,16.03828Zm0-6.81452A2.77645,2.77645,0,1,0,14.77665,12,2.77963,2.77963,0,0,0,12,9.22376Z"/>
  </symbol>

  <symbol id="save" data-name="save" xmlns="http://www.w3.org/2000/svg" viewBox="0 0 24 24"><path d="M20.77927,6.4385l-3.52755-3.273A.73713.73713,0,0,0,16.80351,3H3.69A.723.723,0,0,0,3,3.69V20.3096A.72339.72339,0,0,0,3.69,21H20.31a.72339.72339,0,0,0,.69-.6904V6.9444A.73155.73155,0,0,0,20.77927,6.4385ZM7.20576,4.294h6.44765V5.60868a.43136.43136,0,0,0,.86271,0V4.294h.93434v3.2818H7.20576Zm9.58848,15.412H7.20576v-5.235h9.58848Zm2.91168,0H17.657V14.0396a.4311.4311,0,0,0-.43136-.43134H6.7744a.4311.4311,0,0,0-.43136.43134V19.706h-2.049V4.294H6.343V8.00716a.4311.4311,0,0,0,.43136.43134h9.10742a.4311.4311,0,0,0,.43136-.43134V4.294h.25359l3.13915,2.91365Z"/>
  </symbol>

  <symbol id="upload" data-name="upload" xmlns="http://www.w3.org/2000/svg" viewBox="0 0 24 24"><path d="M18.50856,20.64059H5.49144A3.16558,3.16558,0,0,1,2.5,17.33239a.94661.94661,0,0,1,1.89322,0,1.30473,1.30473,0,0,0,1.09822,1.415H18.50856a1.30473,1.30473,0,0,0,1.09822-1.415.94661.94661,0,1,1,1.89322,0A3.16558,3.16558,0,0,1,18.50856,20.64059Z"/><path d="M17.75177,8.71922,12.6699,3.63673a.94629.94629,0,0,0-1.33857,0L6.24823,8.71922A.94651.94651,0,1,0,7.5868,10.05778L11.054,6.591v9.50139a.94661.94661,0,0,0,1.89322,0V6.59135l3.466,3.46643a.94651.94651,0,0,0,1.33857-1.33856Z"/>
  </symbol>

  <symbol id="download" data-name="download" xmlns="http://www.w3.org/2000/svg" viewBox="0 0 24 24"><path d="M18.50856,20.64059H5.49144A3.16558,3.16558,0,0,1,2.5,17.33239a.94661.94661,0,0,1,1.89322,0,1.30473,1.30473,0,0,0,1.09822,1.415H18.50856a1.30473,1.30473,0,0,0,1.09822-1.415.94661.94661,0,1,1,1.89322,0A3.16558,3.16558,0,0,1,18.50856,20.64059Z"/><path d="M6.24857,11.67922l5.08187,5.08249a.94625.94625,0,0,0,1.33856,0l5.0831-5.08249a.9465.9465,0,0,0-1.33856-1.33856L12.94633,13.8074V4.306a.94661.94661,0,1,0-1.89322,0V13.8071l-3.466-3.46644a.9465.9465,0,1,0-1.33856,1.33856Z"/>
  </symbol>

  <svg id="login" data-name="login" xmlns="http://www.w3.org/2000/svg" viewBox="0 0 24 24"><title>732_icon</title><path d="M19.444,5.53018H4.556A2.056,2.056,0,0,0,2.5,7.58616v8.82768a2.056,2.056,0,0,0,2.056,2.056H19.444a2.05591,2.05591,0,0,0,2.056-2.056V7.58616A2.056,2.056,0,0,0,19.444,5.53018ZM4.33743,8.04806a.60628.60628,0,1,1,.60628-.60627A.60624.60624,0,0,1,4.33743,8.04806Zm4.23951,6.0807a.44928.44928,0,0,1-.31468.09757H6.21911a.52859.52859,0,0,1-.39659-.12577.57354.57354,0,0,1-.12187-.409V10.37417a.58325.58325,0,0,1,.1164-.39591.37858.37858,0,0,1,.302-.13139.39836.39836,0,0,1,.30929.12952.58541.58541,0,0,1,.11827.39778V13.5095H8.26226a.44226.44226,0,0,1,.31468.1032.3376.3376,0,0,1,.1092.259A.33085.33085,0,0,1,8.57694,14.12876Zm1.54464-.36029a.57829.57829,0,0,1-.11827.39966.39352.39352,0,0,1-.30928.13132.38922.38922,0,0,1-.30014-.1332.5883.5883,0,0,1-.11827-.39778v-3.3943A.59279.59279,0,0,1,9.392,9.97826a.38631.38631,0,0,1,.302-.13139.39835.39835,0,0,1,.30928.12952.5762.5762,0,0,1,.11827.39778Zm4.30634-3.39242a1.071,1.071,0,0,1-.04365.14819c-.01642.04695-.03277.0957-.051.14827l-1.01148,2.81262c-.03458.10882-.07095.21014-.1074.30771a1.31111,1.31111,0,0,1-.12554.25522.57611.57611,0,0,1-.18915.182.63793.63793,0,0,1-.5786,0,.56329.56329,0,0,1-.191-.182,1.33677,1.33677,0,0,1-.12554-.25709c-.03638-.0957-.07275-.197-.10912-.30584L10.90208,10.695c-.01822-.0507-.03457-.10132-.0528-.15014a.99021.99021,0,0,1-.04545-.15757.66708.66708,0,0,1-.01822-.14452.40737.40737,0,0,1,.40933-.39591.33992.33992,0,0,1,.30569.13514,1.84875,1.84875,0,0,1,.18374.43716l.946,2.88769.94789-2.90831c.04912-.152.08729-.259.111-.319a.42506.42506,0,0,1,.12367-.1614.34507.34507,0,0,1,.23287-.07132.38727.38727,0,0,1,.20017.05445.41477.41477,0,0,1,.14557.14819.36792.36792,0,0,1,.05272.18764A.64415.64415,0,0,1,14.42792,10.37605Zm3.76958,3.75458a.42129.42129,0,0,1-.30014.0957H15.59773a.52856.52856,0,0,1-.39659-.12577.582.582,0,0,1-.12194-.409V10.45487a.74175.74175,0,0,1,.05459-.30779.34223.34223,0,0,1,.1692-.17257.68107.68107,0,0,1,.29474-.05444h2.23408a.42321.42321,0,0,1,.30022.09194.35195.35195,0,0,1,0,.48786.42317.42317,0,0,1-.30022.092H15.92516V11.6501h1.75569a.40815.40815,0,0,1,.28926.09007.30912.30912,0,0,1,.09457.23639.32161.32161,0,0,1-.09277.23827.402.402,0,0,1-.29106.09382H15.92516V13.534h1.9722a.42057.42057,0,0,1,.30014.09383.33446.33446,0,0,1,.10192.25514A.32658.32658,0,0,1,18.1975,14.13063Z"/><rect width="24" height="24" fill="none"/>
  </svg>

  <svg version="1.1" id="edit" xmlns="http://www.w3.org/2000/svg" xmlns:xlink="http://www.w3.org/1999/xlink" x="0px" y="0px"
	 viewBox="0 0 24 24" style="enable-background:new 0 0 24 24;" xml:space="preserve">
    <style type="text/css">
      .st0{fill:#292F34;}
    </style>
    <path class="st0" d="M17.9,7.7c-0.2,0-0.3-0.1-0.3-0.3c0,0,0,0,0,0c0-0.6-0.5-1.2-1.2-1.2c-0.2,0-0.3-0.1-0.3-0.3
      c0-0.2,0.1-0.3,0.3-0.3c1,0,1.7,0.8,1.7,1.7C18.2,7.6,18.1,7.7,17.9,7.7C17.9,7.7,17.9,7.7,17.9,7.7z"/>
    <path d="M19.1,5.1C19.1,5.1,19.1,5,19.1,5.1L19,5l0,0v0l0,0v0c0,0,0,0,0,0C18.3,4.3,17.5,4,16.6,4h0c-0.9,0-1.8,0.4-2.5,1l-8.7,8.8
      c-0.1,0.1-0.1,0.2-0.1,0.2L4,19.4c-0.1,0.3,0.1,0.5,0.4,0.6c0,0,0.1,0,0.1,0c0,0,0.1,0,0.1,0l5.3-1.2c0.1,0,0.2-0.1,0.2-0.1L19,9.9
      C20.3,8.6,20.4,6.5,19.1,5.1L19.1,5.1z M6.1,15.1l2.9,2.9l-3.7,0.9L6.1,15.1z M18.2,9.2l-8.5,8.4l-3.3-3.3l8.4-8.5
      C15.3,5.3,15.9,5,16.6,5h0C17.9,5,19,6.1,19,7.5C19,8.1,18.7,8.7,18.2,9.2L18.2,9.2z"/>
  </svg>

  <symbol id="arrow-down" xmlns="http://www.w3.org/2000/svg" viewBox="0 0 24 24"><path d="M0 0h24v24H0V0z" fill="none"/><path d="M20 12l-1.41-1.41L13 16.17V4h-2v12.17l-5.58-5.59L4 12l8 8 8-8z"/></symbol>

  <svg id="skip-next" xmlns="http://www.w3.org/2000/svg" height="24" viewBox="0 0 24 24" width="24"><path d="M0 0h24v24H0z" fill="none"/><path d="M6 18l8.5-6L6 6v12zM16 6v12h2V6h-2z"/></svg>
  <svg id="skip-previous" xmlns="http://www.w3.org/2000/svg" height="24" viewBox="0 0 24 24" width="24"><path d="M0 0h24v24H0z" fill="none"/><path d="M6 6h2v12H6zm3.5 6l8.5 6V6z"/></svg>

  <svg id="zoom-out" xmlns="http://www.w3.org/2000/svg" height="24" viewBox="0 0 24 24" width="24"><path d="M0 0h24v24H0V0z" fill="none"/><path d="M15.5 14h-.79l-.28-.27C15.41 12.59 16 11.11 16 9.5 16 5.91 13.09 3 9.5 3S3 5.91 3 9.5 5.91 16 9.5 16c1.61 0 3.09-.59 4.23-1.57l.27.28v.79l5 4.99L20.49 19l-4.99-5zm-6 0C7.01 14 5 11.99 5 9.5S7.01 5 9.5 5 14 7.01 14 9.5 11.99 14 9.5 14zM7 9h5v1H7z"/></svg>
  <svg id="zoom-in" xmlns="http://www.w3.org/2000/svg" height="24" viewBox="0 0 24 24" width="24"><path d="M0 0h24v24H0V0z" fill="none"/><path d="M15.5 14h-.79l-.28-.27C15.41 12.59 16 11.11 16 9.5 16 5.91 13.09 3 9.5 3S3 5.91 3 9.5 5.91 16 9.5 16c1.61 0 3.09-.59 4.23-1.57l.27.28v.79l5 4.99L20.49 19l-4.99-5zm-6 0C7.01 14 5 11.99 5 9.5S7.01 5 9.5 5 14 7.01 14 9.5 11.99 14 9.5 14z"/><path d="M12 10h-2v2H9v-2H7V9h2V7h1v2h2v1z"/></svg>
  
  <svg id="add-circle-outline" xmlns="http://www.w3.org/2000/svg" height="24" viewBox="0 0 24 24" width="24"><path d="M0 0h24v24H0z" fill="none"/><path d="M13 7h-2v4H7v2h4v4h2v-4h4v-2h-4V7zm-1-5C6.48 2 2 6.48 2 12s4.48 10 10 10 10-4.48 10-10S17.52 2 12 2zm0 18c-4.41 0-8-3.59-8-8s3.59-8 8-8 8 3.59 8 8-3.59 8-8 8z"/></svg>
  <svg id="remove-circle-outline" xmlns="http://www.w3.org/2000/svg" height="24" viewBox="0 0 24 24" width="24"><path d="M0 0h24v24H0z" fill="none"/><path d="M7 11v2h10v-2H7zm5-9C6.48 2 2 6.48 2 12s4.48 10 10 10 10-4.48 10-10S17.52 2 12 2zm0 18c-4.41 0-8-3.59-8-8s3.59-8 8-8 8 3.59 8 8-3.59 8-8 8z"/></svg>

  <svg id="undo" xmlns="http://www.w3.org/2000/svg" viewBox="0 0 24 24"><path d="M20.95051,14.36716A8.81907,8.81907,0,0,0,5.22655,12.551L4.59579,10.322a.81329.81329,0,0,0-1.56492.4436L4.20213,14.903a.81341.81341,0,0,0,.82366.59054.80048.80048,0,0,0,.18765-.03177L9.3401,14.25209A.81338.81338,0,1,0,8.88239,12.691l-2.23856.65627a7.19682,7.19682,0,0,1,12.77849,1.57743.81337.81337,0,1,0,1.52819-.55758Z"/></svg>
  <svg id="power" xmlns="http://www.w3.org/2000/svg" viewBox="0 0 24 24"><path d="M11.99974,21A8.54589,8.54589,0,0,1,7.8278,4.99479a.80036.80036,0,0,1,.78259,1.39638,6.94725,6.94725,0,1,0,6.77922,0,.80036.80036,0,0,1,.78259-1.39638A8.54589,8.54589,0,0,1,11.99974,21Z"/><path d="M12,11.44288a.80051.80051,0,0,1-.80031-.80031V3.80031a.80031.80031,0,1,1,1.60062,0v6.84226A.80051.80051,0,0,1,12,11.44288Z"/></svg>
  <svg id="keyboard-arrow-down" xmlns="http://www.w3.org/2000/svg" viewBox="0 0 24 24"><path d="M0 0h24v24H0V0z" fill="none"/><path d="M7.41 8.59L12 13.17l4.59-4.58L18 10l-6 6-6-6 1.41-1.41z"/></svg>

  <svg id="icon_folder" xmlns="http://www.w3.org/2000/svg" viewBox="0 0 24 24"><rect x="5.11183" y="15.84564" width="5.86719" height="1.09433" rx="0.28346"/><path d="M20.38989,19.31463H3.61011A1.11119,1.11119,0,0,1,2.5,18.20451V5.79511A1.1111,1.1111,0,0,1,3.61011,4.68537h7.623a1.0167,1.0167,0,0,1,.91689.571l.94568,1.8997h7.29417A1.11118,1.11118,0,0,1,21.5,8.26615v9.93836A1.11119,1.11119,0,0,1,20.38989,19.31463ZM3.61011,5.84929l.0538,12.35522,16.67218-.0538V8.26615L13.00782,8.32a1.02668,1.02668,0,0,1-.91765-.57324l-.94492-1.89742ZM20.38989,18.15071ZM13.13285,7.2303l.00075.00189ZM11.10736,5.77313v0Z"/></svg>
  <svg id="icon_file" xmlns="http://www.w3.org/2000/svg" viewBox="0 0 24 24"><rect x="7.55918" y="14.27014" width="8.76037" height="0.73018" rx="0.36509"/><rect x="7.55918" y="12" width="6.26103" height="0.73018" rx="0.36509"/><rect x="7.55918" y="16.54028" width="6.26103" height="0.73018" rx="0.36509"/><path d="M19.08229,6.746a.724.724,0,0,0-.03892-.19289.70038.70038,0,0,0-.02443-.06834.71941.71941,0,0,0-.14117-.20944L15.31693,2.71355a.71981.71981,0,0,0-.20974-.14141c-.02183-.01021-.04449-.016-.06738-.024A.71887.71887,0,0,0,14.8462,2.509c-.01566-.001-.02883-.009-.0446-.009H6.29906A1.39169,1.39169,0,0,0,4.9087,3.89037V20.11058A1.39149,1.39149,0,0,0,6.29906,21.5H17.70094a1.39149,1.39149,0,0,0,1.39036-1.38941V6.79066C19.0913,6.77483,19.08323,6.7616,19.08229,6.746ZM15.53047,4.98842l1.07242,1.07337H15.53047Zm-9.164,15.12216L6.29906,3.95775h7.77367V6.79066a.72905.72905,0,0,0,.72887.72887h2.83564l.0637,12.52272Z"/></svg>
  <svg id="add_circle_outline" xmlns="http://www.w3.org/2000/svg" viewBox="0 0 24 24"><path d="M0 0h24v24H0z" fill="none"/><path d="M13 7h-2v4H7v2h4v4h2v-4h4v-2h-4V7zm-1-5C6.48 2 2 6.48 2 12s4.48 10 10 10 10-4.48 10-10S17.52 2 12 2zm0 18c-4.41 0-8-3.59-8-8s3.59-8 8-8 8 3.59 8 8-3.59 8-8 8z"/></svg>
  <svg id="delete_outline" xmlns="http://www.w3.org/2000/svg" viewBox="0 0 24 24"><path d="M0 0h24v24H0V0z" fill="none"/><path d="M6 19c0 1.1.9 2 2 2h8c1.1 0 2-.9 2-2V7H6v12zM8 9h8v10H8V9zm7.5-5l-1-1h-5l-1 1H5v2h14V4z"/></svg>
  <svg id="move_to_inbox" xmlns="http://www.w3.org/2000/svg" viewBox="0 0 24 24"><path d="M0 0h24v24H0V0z" fill="none"/><path d="M19 3H4.99c-1.11 0-1.98.9-1.98 2L3 19c0 1.1.88 2 1.99 2H19c1.1 0 2-.9 2-2V5c0-1.1-.9-2-2-2zm0 12h-4c0 1.66-1.35 3-3 3s-3-1.34-3-3H4.99V5H19v10zm-3-5h-2V7h-4v3H8l4 4 4-4z"/></svg>
  <svg id="sync" xmlns="http://www.w3.org/2000/svg" viewBox="0 0 24 24"><path d="M0 0h24v24H0z" fill="none"/><path d="M12 4V1L8 5l4 4V6c3.31 0 6 2.69 6 6 0 1.01-.25 1.97-.7 2.8l1.46 1.46C19.54 15.03 20 13.57 20 12c0-4.42-3.58-8-8-8zm0 14c-3.31 0-6-2.69-6-6 0-1.01.25-1.97.7-2.8L5.24 7.74C4.46 8.97 4 10.43 4 12c0 4.42 3.58 8 8 8v3l4-4-4-4v3z"/></svg>
  <svg id="add_file" xmlns="http://www.w3.org/2000/svg" viewBox="0 0 24 24"><path d="M19.656,10.656H13.344v-6.312A1.344,1.344,0,0,0,12,3h0a1.344,1.344,0,0,0-1.344,1.344v6.312H4.344A1.344,1.344,0,0,0,3,12v.0001a1.344,1.344,0,0,0,1.344,1.344h6.312v6.312A1.344,1.344,0,0,0,12,21h0a1.344,1.344,0,0,0,1.344-1.344V13.344h6.312A1.344,1.344,0,0,0,21,12.00005V12A1.344,1.344,0,0,0,19.656,10.656Z"/></svg>
  <svg id="close" xmlns="http://www.w3.org/2000/svg" viewBox="0 0 24 24"><path d="M0 0h24v24H0z" fill="none"/><path d="M19 6.41L17.59 5 12 10.59 6.41 5 5 6.41 10.59 12 5 17.59 6.41 19 12 13.41 17.59 19 19 17.59 13.41 12z"/></svg>

</svg>
